<?xml version="1.0" encoding="UTF-8"?>
<!DOCTYPE svg PUBLIC "-//W3C//DTD SVG 1.1//EN" "http://www.w3.org/Graphics/SVG/1.1/DTD/svg11.dtd">
<svg xmlns="http://www.w3.org/2000/svg" version="1.1" width="512px" height="512px" style="shape-rendering:geometricPrecision; text-rendering:geometricPrecision; image-rendering:optimizeQuality; fill-rule:evenodd; clip-rule:evenodd" xmlns:xlink="http://www.w3.org/1999/xlink">
<g><path style="opacity:0.99" fill="#010000" d="M 495.5,207.5 C 461.034,209.796 439.867,227.796 432,261.5C 431.897,269.244 431.231,276.911 430,284.5C 428.829,285.893 427.329,286.727 425.5,287C 422.167,287.333 418.833,287.667 415.5,288C 413.148,288.24 411.148,289.073 409.5,290.5C 395.907,295.598 387.407,305.265 384,319.5C 383.5,327.493 383.334,335.493 383.5,343.5C 399.5,343.5 415.5,343.5 431.5,343.5C 430.215,322.947 439.881,311.78 460.5,310C 461.823,309.184 462.489,308.017 462.5,306.5C 461.581,294.892 464.414,284.226 471,274.5C 477.625,267.369 485.792,263.702 495.5,263.5C 495.5,269.167 495.5,274.833 495.5,280.5C 488.379,280.48 483.546,283.813 481,290.5C 479.594,296.442 479.261,302.442 480,308.5C 487.887,316.606 492.887,326.273 495,337.5C 495.667,388.833 495.667,440.167 495,491.5C 494.5,493.333 493.333,494.5 491.5,495C 345.778,495.995 200.111,495.662 54.5,494C 50.839,491.337 48.339,487.837 47,483.5C 36.6667,438.833 26.3333,394.167 16,349.5C 12.9161,335.162 18.0828,325.329 31.5,320C 76.837,319.833 122.17,319.333 167.5,318.5C 173.222,308.803 181.222,301.637 191.5,297C 219.789,288.844 248.122,280.844 276.5,273C 276.957,272.586 277.291,272.086 277.5,271.5C 261.738,261.333 251.905,247 248,228.5C 247.5,210.836 247.333,193.17 247.5,175.5C 227.171,174.504 216.504,163.838 215.5,143.5C 216.504,123.162 227.171,112.496 247.5,111.5C 247.333,97.1628 247.5,82.8295 248,68.5C 248.658,66.2001 249.158,63.8668 249.5,61.5C 247.946,53.6043 247.279,45.6043 247.5,37.5C 247.371,30.7311 247.871,24.0644 249,17.5C 249.75,16.8742 250.584,16.3742 251.5,16C 288.5,15.3333 325.5,15.3333 362.5,16C 386.667,21.5 401.5,36.3333 407,60.5C 407.5,77.4967 407.667,94.4967 407.5,111.5C 427.829,112.496 438.496,123.162 439.5,143.5C 438.496,163.838 427.829,174.504 407.5,175.5C 407.667,192.837 407.5,210.17 407,227.5C 403.382,246.423 393.548,261.09 377.5,271.5C 378.09,272.799 379.09,273.632 380.5,274C 385.718,275.428 390.884,276.928 396,278.5C 402.001,274.888 408.501,272.554 415.5,271.5C 416.442,236.427 432.776,211.593 464.5,197C 474.44,192.912 484.774,191.078 495.5,191.5C 495.5,196.833 495.5,202.167 495.5,207.5 Z"/></g>
<g><path style="opacity:1" fill="#794229" d="M 333.5,31.5 C 351.019,35.351 362.019,46.0176 366.5,63.5C 335.832,63.6666 305.165,63.5 274.5,63C 270.388,61.2214 267.222,58.3881 265,54.5C 263.604,46.9196 263.104,39.253 263.5,31.5C 286.833,31.5 310.167,31.5 333.5,31.5 Z"/></g>
<g><path style="opacity:1" fill="#733a1f" d="M 333.5,31.5 C 341.84,31.3336 350.173,31.5003 358.5,32C 375.648,35.9816 386.315,46.4816 390.5,63.5C 382.5,63.5 374.5,63.5 366.5,63.5C 362.019,46.0176 351.019,35.351 333.5,31.5 Z"/></g>
<g><path style="opacity:1" fill="#8e5337" d="M 263.5,75.5 C 266.479,76.6535 269.479,77.8202 272.5,79C 269.794,84.2469 266.96,89.4135 264,94.5C 263.5,88.1754 263.334,81.8421 263.5,75.5 Z"/></g>
<g><path style="opacity:1" fill="#fbbe91" d="M 367.5,152.5 C 367.81,149.287 367.477,146.287 366.5,143.5C 375.541,139.038 377.541,132.372 372.5,123.5C 370.71,121.684 368.71,120.351 366.5,119.5C 367.986,111.884 367.653,104.218 365.5,96.5C 337.67,95.8333 310.003,95.1667 282.5,94.5C 284.807,89.8864 287.14,85.2198 289.5,80.5C 314.833,79.1667 340.167,79.1667 365.5,80.5C 372.37,94.4159 380.37,107.583 389.5,120C 382.267,130.986 374.934,141.819 367.5,152.5 Z"/></g>
<g><path style="opacity:1" fill="#905438" d="M 383.5,79.5 C 386.167,79.5 388.833,79.5 391.5,79.5C 391.666,84.5111 391.499,89.5111 391,94.5C 387.962,89.7568 385.462,84.7568 383.5,79.5 Z"/></g>
<g><path style="opacity:1" fill="#fbc7a1" d="M 282.5,94.5 C 310.003,95.1667 337.67,95.8333 365.5,96.5C 367.653,104.218 367.986,111.884 366.5,119.5C 358.113,119.017 353.113,122.851 351.5,131C 352.543,139.861 357.543,144.028 366.5,143.5C 367.477,146.287 367.81,149.287 367.5,152.5C 366.386,155.449 364.386,157.615 361.5,159C 348.487,159.833 335.487,159.666 322.5,158.5C 326.908,146.278 330.908,133.944 334.5,121.5C 329.929,120.477 325.429,119.144 321,117.5C 320.5,117.833 320,118.167 319.5,118.5C 314.901,131.796 310.401,145.13 306,158.5C 301.132,159.915 296.299,159.748 291.5,158C 282.586,145.507 273.92,132.84 265.5,120C 271.422,111.595 277.089,103.095 282.5,94.5 Z"/></g>
<g><path style="opacity:1" fill="#060403" d="M 287.5,119.5 C 300.217,119.296 305.05,125.296 302,137.5C 294.966,145.413 287.966,145.413 281,137.5C 277.844,129.494 280.01,123.494 287.5,119.5 Z"/></g>
<g><path style="opacity:1" fill="#060402" d="M 366.5,119.5 C 368.71,120.351 370.71,121.684 372.5,123.5C 377.541,132.372 375.541,139.038 366.5,143.5C 357.543,144.028 352.543,139.861 351.5,131C 353.113,122.851 358.113,119.017 366.5,119.5 Z"/></g>
<g><path style="opacity:1" fill="#f9b381" d="M 242.5,127.5 C 244.167,127.5 245.833,127.5 247.5,127.5C 247.5,138.167 247.5,148.833 247.5,159.5C 233.073,156.651 228.573,148.317 234,134.5C 236.441,131.546 239.275,129.213 242.5,127.5 Z"/></g>
<g><path style="opacity:1" fill="#f8b281" d="M 407.5,127.5 C 421.927,130.349 426.427,138.683 421,152.5C 417.64,157.096 413.14,159.429 407.5,159.5C 407.5,148.833 407.5,138.167 407.5,127.5 Z"/></g>
<g><path style="opacity:1" fill="#79422a" d="M 366.5,174.5 C 367.662,190.995 367.828,207.662 367,224.5C 364.263,241.039 356.097,254.039 342.5,263.5C 327.442,263.934 312.442,263.434 297.5,262C 278.383,255.552 267.217,242.385 264,222.5C 263.333,197.167 263.333,171.833 264,146.5C 269.19,156.067 275.69,164.567 283.5,172C 285.717,173.275 288.051,174.275 290.5,175C 315.857,175.796 341.19,175.629 366.5,174.5 Z"/></g>
<g><path style="opacity:1" fill="#733a1f" d="M 342.5,263.5 C 356.097,254.039 364.263,241.039 367,224.5C 367.828,207.662 367.662,190.995 366.5,174.5C 370.346,172.845 373.846,170.512 377,167.5C 381.915,160.672 386.581,153.672 391,146.5C 391.667,171.833 391.667,197.167 391,222.5C 385.696,248.968 369.529,262.635 342.5,263.5 Z"/></g>
<g><path style="opacity:1" fill="#010000" d="M 344.5,184.5 C 346.167,184.5 347.833,184.5 349.5,184.5C 350.833,189.5 352.167,194.5 353.5,199.5C 337.039,203.05 320.373,204.383 303.5,203.5C 303.5,198.5 303.5,193.5 303.5,188.5C 311.84,188.666 320.173,188.5 328.5,188C 334.13,187.568 339.463,186.402 344.5,184.5 Z"/></g>
<g><path style="opacity:1" fill="#e9e9e7" d="M 495.5,207.5 C 495.5,226.167 495.5,244.833 495.5,263.5C 485.792,263.702 477.625,267.369 471,274.5C 464.414,284.226 461.581,294.892 462.5,306.5C 459.064,304.519 455.397,303.019 451.5,302C 437.311,298.455 423.311,294.622 409.5,290.5C 411.148,289.073 413.148,288.24 415.5,288C 418.833,287.667 422.167,287.333 425.5,287C 427.329,286.727 428.829,285.893 430,284.5C 431.231,276.911 431.897,269.244 432,261.5C 439.867,227.796 461.034,209.796 495.5,207.5 Z"/></g>
<g><path style="opacity:1" fill="#fcb683" d="M 365.5,283.5 C 353.458,286.985 341.125,288.318 328.5,287.5C 320.5,287.333 312.5,287.167 304.5,287C 299.331,286.401 294.331,285.234 289.5,283.5C 290.757,281.32 292.257,279.32 294,277.5C 296.135,278.127 298.302,278.627 300.5,279C 318.167,279.667 335.833,279.667 353.5,279C 359.332,275.967 363.332,277.467 365.5,283.5 Z"/></g>
<g><path style="opacity:1" fill="#fbc7a1" d="M 289.5,283.5 C 294.331,285.234 299.331,286.401 304.5,287C 312.5,287.167 320.5,287.333 328.5,287.5C 341.125,288.318 353.458,286.985 365.5,283.5C 367.803,285.325 370.136,287.158 372.5,289C 360.41,313.045 341.076,322.712 314.5,318C 299.712,312.879 289.046,303.212 282.5,289C 284.864,287.158 287.197,285.325 289.5,283.5 Z"/></g>
<g><path style="opacity:1" fill="#d2bc80" d="M 409.5,290.5 C 423.311,294.622 437.311,298.455 451.5,302C 455.397,303.019 459.064,304.519 462.5,306.5C 462.489,308.017 461.823,309.184 460.5,310C 439.881,311.78 430.215,322.947 431.5,343.5C 415.5,343.5 399.5,343.5 383.5,343.5C 383.334,335.493 383.5,327.493 384,319.5C 387.407,305.265 395.907,295.598 409.5,290.5 Z"/></g>
<g><path style="opacity:1" fill="#c5ad70" d="M 263.5,293.5 C 265.144,293.286 266.644,293.62 268,294.5C 278.658,319.978 297.825,333.644 325.5,335.5C 340.977,335.508 354.81,330.841 367,321.5C 367.5,328.826 367.666,336.159 367.5,343.5C 363.818,343.335 360.152,343.501 356.5,344C 354.333,344.833 352.833,346.333 352,348.5C 351.333,360.833 351.333,373.167 352,385.5C 353.134,389.823 355.967,391.823 360.5,391.5C 362.959,420.802 364.959,450.136 366.5,479.5C 358.833,479.5 351.167,479.5 343.5,479.5C 343.666,470.494 343.5,461.494 343,452.5C 342.535,451.069 341.701,449.903 340.5,449C 314.898,447.528 289.231,447.028 263.5,447.5C 256.272,411.192 249.105,374.859 242,338.5C 238.311,328.809 231.478,322.643 221.5,320C 210.5,319.667 199.5,319.333 188.5,319C 192.156,315.837 196.156,313.171 200.5,311C 221.662,305.296 242.662,299.463 263.5,293.5 Z"/></g>
<g><path style="opacity:1" fill="#c5ac6f" d="M 469.5,322.5 C 474.47,327.435 477.636,333.435 479,340.5C 479.5,352.162 479.667,363.829 479.5,375.5C 474.167,375.5 468.833,375.5 463.5,375.5C 463.666,366.494 463.5,357.494 463,348.5C 462.065,345.898 460.232,344.398 457.5,344C 454.183,343.502 450.85,343.335 447.5,343.5C 447.335,339.818 447.501,336.152 448,332.5C 448.465,331.069 449.299,329.903 450.5,329C 457.481,328.507 463.814,326.34 469.5,322.5 Z"/></g>
<g><path style="opacity:1" fill="#dfdfdd" d="M 229.5,359.5 C 229.702,361.989 229.202,364.323 228,366.5C 195.395,403.778 156.562,432.612 111.5,453C 94.828,460.39 77.828,466.89 60.5,472.5C 50.1383,428.322 40.6383,383.989 32,339.5C 32.3742,338.584 32.8742,337.75 33.5,337C 95.0844,335.341 156.751,335.008 218.5,336C 222.02,336.504 224.52,338.337 226,341.5C 227.746,347.394 228.912,353.394 229.5,359.5 Z"/></g>
<g><path style="opacity:1" fill="#784127" d="M 367.5,359.5 C 394.167,359.5 420.833,359.5 447.5,359.5C 447.5,364.833 447.5,370.167 447.5,375.5C 420.833,375.5 394.167,375.5 367.5,375.5C 367.5,370.167 367.5,364.833 367.5,359.5 Z"/></g>
<g><path style="opacity:1" fill="#d5d5d3" d="M 229.5,359.5 C 236.961,394.304 244.128,429.304 251,464.5C 252.581,470.062 251.081,474.562 246.5,478C 186.558,479.655 126.558,479.988 66.5,479C 63.6141,477.615 61.6141,475.449 60.5,472.5C 77.828,466.89 94.828,460.39 111.5,453C 156.562,432.612 195.395,403.778 228,366.5C 229.202,364.323 229.702,361.989 229.5,359.5 Z"/></g>
<g><path style="opacity:1" fill="#030303" d="M 128.5,383.5 C 143.385,382.355 153.552,388.688 159,402.5C 161.05,419.613 153.55,429.28 136.5,431.5C 117.015,428.186 109.182,416.853 113,397.5C 116.492,390.834 121.659,386.168 128.5,383.5 Z"/></g>
<g><path style="opacity:1" fill="#c5c5c3" d="M 437.5,402.5 C 437.5,401.5 437.5,400.5 437.5,399.5C 417.5,399.5 397.5,399.5 377.5,399.5C 377.5,400.5 377.5,401.5 377.5,402.5C 376.518,399.038 376.185,395.371 376.5,391.5C 397.167,391.5 417.833,391.5 438.5,391.5C 438.815,395.371 438.482,399.038 437.5,402.5 Z"/></g>
<g><path style="opacity:1" fill="#fab482" d="M 454.5,391.5 C 462.833,391.5 471.167,391.5 479.5,391.5C 479.5,396.833 479.5,402.167 479.5,407.5C 470.833,407.5 462.167,407.5 453.5,407.5C 453.687,402.155 454.02,396.822 454.5,391.5 Z"/></g>
<g><path style="opacity:1" fill="#d5d6d3" d="M 437.5,402.5 C 437.5,404.167 437.5,405.833 437.5,407.5C 417.5,407.5 397.5,407.5 377.5,407.5C 377.5,405.833 377.5,404.167 377.5,402.5C 377.5,401.5 377.5,400.5 377.5,399.5C 397.5,399.5 417.5,399.5 437.5,399.5C 437.5,400.5 437.5,401.5 437.5,402.5 Z"/></g>
<g><path style="opacity:1" fill="#e2e2e0" d="M 131.5,399.5 C 141.923,399.726 145.256,404.559 141.5,414C 132.067,416.903 127.567,413.403 128,403.5C 128.69,401.65 129.856,400.316 131.5,399.5 Z"/></g>
<g><path style="opacity:1" fill="#935539" d="M 378.5,423.5 C 385.833,423.5 393.167,423.5 400.5,423.5C 400.065,431.495 399.731,439.495 399.5,447.5C 393.167,447.5 386.833,447.5 380.5,447.5C 379.986,439.482 379.319,431.482 378.5,423.5 Z"/></g>
<g><path style="opacity:1" fill="#fdc8a2" d="M 420.5,423.5 C 440.167,423.5 459.833,423.5 479.5,423.5C 479.5,442.167 479.5,460.833 479.5,479.5C 459.075,479.976 438.741,479.476 418.5,478C 417.299,477.097 416.465,475.931 416,474.5C 415.333,459.167 415.333,443.833 416,428.5C 417.025,426.313 418.525,424.646 420.5,423.5 Z"/></g>
<g><path style="opacity:1" fill="#c6c6c4" d="M 267.5,463.5 C 287.5,463.5 307.5,463.5 327.5,463.5C 327.5,468.833 327.5,474.167 327.5,479.5C 306.823,479.833 286.156,479.5 265.5,478.5C 267.042,473.627 267.708,468.627 267.5,463.5 Z"/></g>
<g><path style="opacity:1" fill="#d3d3d1" d="M 382.5,463.5 C 388.167,463.5 393.833,463.5 399.5,463.5C 399.833,468.833 400.167,474.167 400.5,479.5C 394.5,479.5 388.5,479.5 382.5,479.5C 382.5,474.167 382.5,468.833 382.5,463.5 Z"/></g>
</svg>
